<?xml version="1.0" encoding="UTF-8"?>
<svg width="164px" height="104px" viewBox="0 0 164 104" version="1.1" xmlns="http://www.w3.org/2000/svg" xmlns:xlink="http://www.w3.org/1999/xlink">
    <title>Group@</title>
    <g id="Page-1" stroke="none" stroke-width="1" fill="none" fill-rule="evenodd">
        <g id="Group" transform="translate(0.500000, 0.500000)" fill="#000000" fill-rule="nonzero">
            <path d="M36.9,35.7 L35.5,25.5 L21,25.5 L20.2,19.6 C19.3,13 21.6,10.6 25.1,10.6 C29.1,10.6 32.2,12.7 33.5,13.5 L32,2 C29.7,0.4 28.4,0 23.5,0 C13,0 6.2,6.8 8,20.4 L8.5,25.5 L-1.0658141e-14,25.5 L1.7,35.7 L36.9,35.7 Z" id="Path"></path>
            <path d="M44.9,14.7 C49.8,14.7 52.1,10.8 51.5,7 C51.1,3.7 48.2,0.6 44.2,0.6 C39.4,0.6 36.8,4.5 37.3,8.4 C37.8,11.6 40.5,14.7 44.9,14.7 Z" id="Path"></path>
            <polygon id="Path" points="60.6 79.5 53 25.5 40.5 25.5 48.2 79.5"></polygon>
            <path d="M13.3,57.9 L25.5,57.9 L28.4,78.8 C30.5,93.4 24.9,102.2 14.4,102.2 C13.2374486,102.2 11.6611647,101.786268 10.7590912,101.416884 L9.2055935,90.3808079 C9.43906215,90.3935341 9.67114754,90.4 9.9,90.4 C14.9105263,90.4 17.1219144,86.1530317 16.5341644,80.6936115 L16.5,80.4 L13.3,57.9 Z" id="Path"></path>
            <path d="M112.2,79.5 L106.8,42.3 C108.7,38.4 112.6,35.3 117.4,35.3 C122.8,35.3 127.4,39.7 128.3,46 L130,57.9 L142.2,57.9 L140.4,45.2 C138.5,31.6 131.6,24.1 119.9,24.1 C111.3,24.1 106.2,28.5 103.3,32.1 C100.6,27.9 96,24.1 88.3,24.1 C80.9,24.1 73.6,28.8 71,32.5 L70,25.5 L58.5,25.5 L63.2,57.9 L75.6,57.9 L73.3,42.9 C75.5,38.8 80.3,35.6 84.9,35.6 C90.2,35.6 94.2,39.7 95.1,45.7 L99.8,79.5 L112.2,79.5 Z" id="Path"></path>
            <path d="M147.3,14.7 C152.2,14.7 154.5,10.8 153.9,7 C153.5,3.7 150.6,0.6 146.6,0.6 C141.8,0.6 139.2,4.5 139.7,8.4 C140.2,11.6 142.9,14.7 147.3,14.7 Z" id="Path"></path>
            <polygon id="Path" points="163 79.5 155.5 25.5 143 25.5 150.6 79.5"></polygon>
        </g>
    </g>
</svg>